<svg xmlns="http://www.w3.org/2000/svg" xmlns:xlink="http://www.w3.org/1999/xlink" width="13.2447509765625" height="15.47998046875" viewBox="0 0 13.2447509765625 15.47998046875" >
<path d="M10.0799 4.32C10.0799 6.70723 8.14713 8.64 5.7599 8.64C3.37353 8.64 1.4399 6.70723 1.4399 4.32C1.4399 1.93363 3.37353 0 5.7599 0C8.14713 0 10.0799 1.93363 10.0799 4.32ZM2.88 4.3199C2.88 2.72899 4.16909 1.4399 5.76 1.4399C7.35149 1.4399 8.64 2.72899 8.64 4.3199C8.64 5.91139 7.35149 7.1999 5.76 7.1999C4.16909 7.1999 2.88 5.91139 2.88 4.3199ZM12.5249 14.4834L13.2448 13.2366L12.5306 12.8238C12.6217 12.4402 12.6217 12.0398 12.5306 11.6562L13.2448 11.2434L12.5249 9.99662L11.8107 10.4088C11.5276 10.1411 11.1819 9.9383 10.7989 9.82426L10.7989 9L9.35903 9L9.35903 9.82426C8.98039 9.93701 8.63405 10.1372 8.34723 10.4088L7.63301 9.99662L6.9131 11.2434L7.62731 11.6562C7.53614 12.0404 7.53614 12.4402 7.62731 12.8245L6.9131 13.2366L7.63301 14.4834L8.34723 14.0712C8.63405 14.3428 8.98039 14.543 9.35903 14.6557L9.35903 15.48L10.7989 15.48L10.7989 14.6557C11.1775 14.543 11.5238 14.3428 11.8107 14.0712L12.5249 14.4834ZM5.76 9.3601C2.57875 9.3601 0 11.9389 0 15.1201L1.44 15.1201C1.44 12.7343 3.37421 10.8001 5.76 10.8001L5.76 9.3601ZM9 12.2399C9 11.6435 9.48362 11.1599 10.08 11.1599C10.6764 11.1599 11.16 11.6435 11.16 12.2399C11.16 12.8363 10.6764 13.3199 10.08 13.3199C9.48362 13.3199 9 12.8363 9 12.2399Z" fill-rule="evenodd"   >
</path>
</svg>
