<svg xmlns="http://www.w3.org/2000/svg" xmlns:xlink="http://www.w3.org/1999/xlink" width="15" height="14.625" viewBox="0 0 15 14.625" >
<path d="M14.25 11.9998L3.342 11.9998L0 14.625L0 0.750262C0 0.336375 0.336 0 0.75 0L14.25 0C14.664 0 15 0.336375 15 0.750262L15 11.2495C15 11.6649 14.664 11.9998 14.25 11.9998ZM1.5 1.5L13.5 1.5L13.5 10.4997L2.8224 10.4997L1.5 11.5387L1.5 1.5ZM7.49966 7.50025L6.74972 7.50025L6.74972 6.00035L7.49966 6.00035C8.09202 6.00035 8.58296 5.5403 8.62196 4.94895C8.66097 4.3576 8.23451 3.83768 7.64684 3.75995C7.05968 3.68223 6.51257 4.07348 6.39607 4.65485L4.9248 4.36023C5.19576 3.0037 6.47252 2.0899 7.84394 2.27161C9.21536 2.45279 10.2108 3.667 10.1198 5.04716C10.0287 6.42732 8.88252 7.50025 7.49966 7.50025ZM6.75 8.25L6.75 9.75L8.25 9.75L8.25 8.25L6.75 8.25Z" fill-rule="evenodd" >
</path>
</svg>
