<svg xmlns="http://www.w3.org/2000/svg" xmlns:xlink="http://www.w3.org/1999/xlink" width="15.7513427734375" height="15.75" viewBox="0 0 15.7513427734375 15.75" >
<path d="M10.5 4.5C10.5 6.9867 8.4867 9 6 9C3.5142 9 1.5 6.9867 1.5 4.5C1.5 2.0142 3.5142 0 6 0C8.4867 0 10.5 2.0142 10.5 4.5ZM3 4.5C3 2.8428 4.3428 1.5 6 1.5C7.6578 1.5 9 2.8428 9 4.5C9 6.1578 7.6578 7.5 6 7.5C4.3428 7.5 3 6.1578 3 4.5ZM11.697 1.8098L11.2808 3.26698C12.3161 3.77331 12.9 4.89531 12.7207 6.03395C12.5415 7.1718 11.6407 8.06005 10.5 8.22408L10.5 9.73355C12.6244 9.54021 14.2507 7.75816 14.25 5.62509C14.2507 3.95317 13.2424 2.44687 11.697 1.8098ZM0 15.75L1.5 15.75C1.5 13.2648 3.5148 11.25 6 11.25C8.4852 11.25 10.5 13.2648 10.5 15.75L12 15.75C12 12.4362 9.3132 9.75 6 9.75C2.6868 9.75 0 12.4362 0 15.75ZM12.2136 10.2773L11.5986 11.6455C13.2136 12.3723 14.2518 13.9791 14.2514 15.75L15.7514 15.75C15.7518 13.3891 14.3672 11.2471 12.2136 10.2773Z" fill-rule="evenodd"  >
</path>
</svg>
