<svg xmlns="http://www.w3.org/2000/svg" xmlns:xlink="http://www.w3.org/1999/xlink" width="16.5" height="15" viewBox="0 0 16.5 15" >
<path d="M7.49967 15C9.86095 15.0015 12.0859 13.89 13.5007 12L11.4689 12C9.0563 14.127 5.39625 13.9755 3.16863 11.6535C0.942352 9.333 0.942352 5.6685 3.16863 3.348C5.3949 1.026 9.05495 0.873 11.4675 3L13.4994 3C12.0845 1.11 9.86095 -0.0015 7.49967 0C3.35764 0 0 3.3585 0 7.5C0 11.643 3.35764 15 7.49967 15ZM12.7502 10.5L16.5 7.5L12.7502 4.5L12.7502 6.75L6.75 6.75L6.75 8.25L12.7502 8.25L12.7502 10.5Z" fill-rule="evenodd" >
</path>
</svg>
