<svg xmlns="http://www.w3.org/2000/svg" xmlns:xlink="http://www.w3.org/1999/xlink" width="13.5" height="13.5" viewBox="0 0 13.5 13.5" >
<path d="M0 0L0 6L6 6L6 0L0 0ZM7.5 0L7.5 6L13.5 6L13.5 0L7.5 0ZM4.5 4.5L4.5 1.5L1.5 1.5L1.5 4.5L4.5 4.5ZM12 4.5L12 1.5L9 1.5L9 4.5L12 4.5ZM2.25 3.75L2.25 2.25L3.75 2.25L3.75 3.75L2.25 3.75ZM9.75 3.75L9.75 2.25L11.25 2.25L11.25 3.75L9.75 3.75ZM0 7.5L0 13.5L6 13.5L6 7.5L0 7.5ZM9.75 10.5L9.75 9.75L7.5 9.75L7.5 7.5L9.75 7.5L9.75 9L11.25 9L11.25 10.5L10.5 10.5L10.5 12L9 12L9 13.5L7.5 13.5L7.5 11.25L9 11.25L9 10.5L9.75 10.5ZM10.5 12L12 12L12 10.5L13.5 10.5L13.5 13.5L10.5 13.5L10.5 12ZM11.25 9L13.5 9L13.5 7.5L11.25 7.5L11.25 9ZM4.5 12L4.5 9L1.5 9L1.5 12L4.5 12ZM2.25 11.25L2.25 9.75L3.75 9.75L3.75 11.25L2.25 11.25Z" fill-rule="evenodd"   >
</path>
</svg>
