<svg xmlns="http://www.w3.org/2000/svg" xmlns:xlink="http://www.w3.org/1999/xlink" width="15" height="15" viewBox="0 0 15 15" >
<path d="M12.75 15C13.992 15 15 13.992 15 12.75L15 9.75L12 9.75L12 0.75C12 0.336 11.664 0 11.25 0L0.75 0C0.336 0 0 0.336 0 0.75L0 12.75C0 13.992 1.008 15 2.25 15L12.75 15ZM1.5 12.75L1.5 1.5L10.5 1.5L10.5 13.5L2.2497 13.5C1.8357 13.5 1.5 13.164 1.5 12.75ZM3 5.25L3 3.75L9 3.75L9 5.25L3 5.25ZM3 6.75L3 8.25L9 8.25L9 6.75L3 6.75ZM3 9.75L3 11.25L6.75 11.25L6.75 9.75L3 9.75ZM13.5 12.7501C13.5 13.1643 13.1642 13.5 12.75 13.5C12.3358 13.5 12 13.1643 12 12.7501L12 11.25L13.5 11.25L13.5 12.7501Z" fill-rule="evenodd"   >
</path>
</svg>
